<mxfile host="app.diagrams.net" modified="2021-02-02T02:31:30.363Z" agent="5.0 (Windows NT 10.0; Win64; x64) AppleWebKit/537.36 (KHTML, like Gecko) Chrome/88.0.4324.104 Safari/537.36" etag="qsQgb9-M5XJkFlP4plDi" version="14.2.6" type="github">
  <diagram id="Q89y7Z0jrOY_SJ53BKr0" name="第 1 页">
    <mxGraphModel dx="1422" dy="762" grid="1" gridSize="10" guides="1" tooltips="1" connect="1" arrows="1" fold="1" page="1" pageScale="1" pageWidth="827" pageHeight="1169" math="0" shadow="0">
      <root>
        <mxCell id="0" />
        <mxCell id="1" parent="0" />
        <mxCell id="q12H7q9uytlVfHSGJCnB-4" style="edgeStyle=orthogonalEdgeStyle;rounded=0;orthogonalLoop=1;jettySize=auto;html=1;exitX=0.5;exitY=1;exitDx=0;exitDy=0;entryX=0.5;entryY=0;entryDx=0;entryDy=0;" parent="1" source="q12H7q9uytlVfHSGJCnB-1" target="q12H7q9uytlVfHSGJCnB-3" edge="1">
          <mxGeometry relative="1" as="geometry" />
        </mxCell>
        <mxCell id="q12H7q9uytlVfHSGJCnB-1" value="DOM" style="rounded=1;whiteSpace=wrap;html=1;" parent="1" vertex="1">
          <mxGeometry x="230" y="25" width="70" height="30" as="geometry" />
        </mxCell>
        <mxCell id="q12H7q9uytlVfHSGJCnB-7" style="rounded=0;orthogonalLoop=1;jettySize=auto;html=1;exitX=1;exitY=0.5;exitDx=0;exitDy=0;entryX=0;entryY=0.5;entryDx=0;entryDy=0;" parent="1" source="q12H7q9uytlVfHSGJCnB-3" target="q12H7q9uytlVfHSGJCnB-5" edge="1">
          <mxGeometry relative="1" as="geometry" />
        </mxCell>
        <mxCell id="q12H7q9uytlVfHSGJCnB-8" style="edgeStyle=none;rounded=0;orthogonalLoop=1;jettySize=auto;html=1;exitX=1;exitY=0.5;exitDx=0;exitDy=0;entryX=0;entryY=0.5;entryDx=0;entryDy=0;" parent="1" source="q12H7q9uytlVfHSGJCnB-3" target="q12H7q9uytlVfHSGJCnB-6" edge="1">
          <mxGeometry relative="1" as="geometry" />
        </mxCell>
        <mxCell id="q12H7q9uytlVfHSGJCnB-22" style="edgeStyle=none;rounded=0;orthogonalLoop=1;jettySize=auto;html=1;exitX=0;exitY=0.5;exitDx=0;exitDy=0;entryX=1;entryY=0.5;entryDx=0;entryDy=0;" parent="1" source="q12H7q9uytlVfHSGJCnB-3" target="q12H7q9uytlVfHSGJCnB-21" edge="1">
          <mxGeometry relative="1" as="geometry" />
        </mxCell>
        <mxCell id="q12H7q9uytlVfHSGJCnB-24" style="edgeStyle=none;rounded=0;orthogonalLoop=1;jettySize=auto;html=1;exitX=0.5;exitY=1;exitDx=0;exitDy=0;entryX=0.5;entryY=0;entryDx=0;entryDy=0;" parent="1" source="q12H7q9uytlVfHSGJCnB-3" target="q12H7q9uytlVfHSGJCnB-23" edge="1">
          <mxGeometry relative="1" as="geometry" />
        </mxCell>
        <mxCell id="q12H7q9uytlVfHSGJCnB-3" value="DOM1级" style="rounded=1;whiteSpace=wrap;html=1;" parent="1" vertex="1">
          <mxGeometry x="230" y="85" width="70" height="30" as="geometry" />
        </mxCell>
        <mxCell id="q12H7q9uytlVfHSGJCnB-15" style="edgeStyle=none;rounded=0;orthogonalLoop=1;jettySize=auto;html=1;exitX=1;exitY=0.5;exitDx=0;exitDy=0;entryX=0;entryY=0.5;entryDx=0;entryDy=0;" parent="1" source="q12H7q9uytlVfHSGJCnB-5" target="q12H7q9uytlVfHSGJCnB-13" edge="1">
          <mxGeometry relative="1" as="geometry" />
        </mxCell>
        <mxCell id="q12H7q9uytlVfHSGJCnB-18" style="edgeStyle=none;rounded=0;orthogonalLoop=1;jettySize=auto;html=1;exitX=1;exitY=0.5;exitDx=0;exitDy=0;entryX=0;entryY=0.5;entryDx=0;entryDy=0;" parent="1" source="q12H7q9uytlVfHSGJCnB-5" target="q12H7q9uytlVfHSGJCnB-16" edge="1">
          <mxGeometry relative="1" as="geometry" />
        </mxCell>
        <mxCell id="q12H7q9uytlVfHSGJCnB-5" value="DOM Core" style="rounded=0;whiteSpace=wrap;html=1;" parent="1" vertex="1">
          <mxGeometry x="360" y="40" width="80" height="30" as="geometry" />
        </mxCell>
        <mxCell id="q12H7q9uytlVfHSGJCnB-12" style="edgeStyle=none;rounded=0;orthogonalLoop=1;jettySize=auto;html=1;exitX=1;exitY=0.5;exitDx=0;exitDy=0;entryX=0;entryY=0.5;entryDx=0;entryDy=0;" parent="1" source="q12H7q9uytlVfHSGJCnB-6" target="q12H7q9uytlVfHSGJCnB-11" edge="1">
          <mxGeometry relative="1" as="geometry" />
        </mxCell>
        <mxCell id="q12H7q9uytlVfHSGJCnB-20" style="edgeStyle=none;rounded=0;orthogonalLoop=1;jettySize=auto;html=1;exitX=1;exitY=0.5;exitDx=0;exitDy=0;entryX=0;entryY=0.5;entryDx=0;entryDy=0;" parent="1" source="q12H7q9uytlVfHSGJCnB-6" target="q12H7q9uytlVfHSGJCnB-19" edge="1">
          <mxGeometry relative="1" as="geometry" />
        </mxCell>
        <mxCell id="q12H7q9uytlVfHSGJCnB-6" value="DOM HTML" style="rounded=0;whiteSpace=wrap;html=1;" parent="1" vertex="1">
          <mxGeometry x="360" y="135" width="80" height="30" as="geometry" />
        </mxCell>
        <mxCell id="q12H7q9uytlVfHSGJCnB-11" value="在DOM Core基础上，规定针对HTML的属性和方法" style="rounded=0;whiteSpace=wrap;html=1;" parent="1" vertex="1">
          <mxGeometry x="480" y="110" width="180" height="35" as="geometry" />
        </mxCell>
        <mxCell id="q12H7q9uytlVfHSGJCnB-13" value="规定类XML文档结构相关的访问和操作" style="rounded=0;whiteSpace=wrap;html=1;" parent="1" vertex="1">
          <mxGeometry x="480" y="10" width="130" height="40" as="geometry" />
        </mxCell>
        <mxCell id="q12H7q9uytlVfHSGJCnB-16" value="规定对类XML文档结构的增删改查" style="rounded=0;whiteSpace=wrap;html=1;" parent="1" vertex="1">
          <mxGeometry x="480" y="60" width="130" height="40" as="geometry" />
        </mxCell>
        <mxCell id="q12H7q9uytlVfHSGJCnB-19" value="在DOM Core基础上，规定针对HTML的增删改查，具象实例化" style="rounded=0;whiteSpace=wrap;html=1;" parent="1" vertex="1">
          <mxGeometry x="480" y="155" width="180" height="35" as="geometry" />
        </mxCell>
        <mxCell id="q12H7q9uytlVfHSGJCnB-21" value="目标：映射文档的结构" style="rounded=0;whiteSpace=wrap;html=1;" parent="1" vertex="1">
          <mxGeometry x="60" y="85" width="130" height="30" as="geometry" />
        </mxCell>
        <mxCell id="62U2gSdleWHu8dKYwmUc-2" style="rounded=0;orthogonalLoop=1;jettySize=auto;html=1;exitX=0;exitY=0.5;exitDx=0;exitDy=0;entryX=1;entryY=0.5;entryDx=0;entryDy=0;" edge="1" parent="1" source="q12H7q9uytlVfHSGJCnB-23" target="q12H7q9uytlVfHSGJCnB-25">
          <mxGeometry relative="1" as="geometry" />
        </mxCell>
        <mxCell id="62U2gSdleWHu8dKYwmUc-3" style="edgeStyle=none;rounded=0;orthogonalLoop=1;jettySize=auto;html=1;exitX=0;exitY=0.5;exitDx=0;exitDy=0;entryX=1;entryY=0.5;entryDx=0;entryDy=0;" edge="1" parent="1" source="q12H7q9uytlVfHSGJCnB-23" target="62U2gSdleWHu8dKYwmUc-1">
          <mxGeometry relative="1" as="geometry" />
        </mxCell>
        <mxCell id="62U2gSdleWHu8dKYwmUc-26" style="edgeStyle=none;rounded=0;orthogonalLoop=1;jettySize=auto;html=1;exitX=1;exitY=0.5;exitDx=0;exitDy=0;entryX=0;entryY=0.5;entryDx=0;entryDy=0;" edge="1" parent="1" source="q12H7q9uytlVfHSGJCnB-23" target="62U2gSdleWHu8dKYwmUc-22">
          <mxGeometry relative="1" as="geometry" />
        </mxCell>
        <mxCell id="62U2gSdleWHu8dKYwmUc-27" style="edgeStyle=none;rounded=0;orthogonalLoop=1;jettySize=auto;html=1;exitX=1;exitY=0.5;exitDx=0;exitDy=0;entryX=0;entryY=0.5;entryDx=0;entryDy=0;" edge="1" parent="1" source="q12H7q9uytlVfHSGJCnB-23" target="62U2gSdleWHu8dKYwmUc-23">
          <mxGeometry relative="1" as="geometry" />
        </mxCell>
        <mxCell id="62U2gSdleWHu8dKYwmUc-28" style="edgeStyle=none;rounded=0;orthogonalLoop=1;jettySize=auto;html=1;exitX=1;exitY=0.5;exitDx=0;exitDy=0;entryX=0;entryY=0.5;entryDx=0;entryDy=0;" edge="1" parent="1" source="q12H7q9uytlVfHSGJCnB-23" target="62U2gSdleWHu8dKYwmUc-24">
          <mxGeometry relative="1" as="geometry" />
        </mxCell>
        <mxCell id="62U2gSdleWHu8dKYwmUc-29" style="edgeStyle=none;rounded=0;orthogonalLoop=1;jettySize=auto;html=1;exitX=1;exitY=0.5;exitDx=0;exitDy=0;entryX=0;entryY=0.5;entryDx=0;entryDy=0;" edge="1" parent="1" source="q12H7q9uytlVfHSGJCnB-23" target="62U2gSdleWHu8dKYwmUc-25">
          <mxGeometry relative="1" as="geometry" />
        </mxCell>
        <mxCell id="q12H7q9uytlVfHSGJCnB-23" value="DOM2级" style="rounded=1;whiteSpace=wrap;html=1;" parent="1" vertex="1">
          <mxGeometry x="230" y="276.25" width="70" height="30" as="geometry" />
        </mxCell>
        <mxCell id="q12H7q9uytlVfHSGJCnB-25" value="鼠标和用户界面事件、范围、遍历（迭代DOM文档的方法）" style="rounded=0;whiteSpace=wrap;html=1;" parent="1" vertex="1">
          <mxGeometry x="70" y="240" width="120" height="55" as="geometry" />
        </mxCell>
        <mxCell id="62U2gSdleWHu8dKYwmUc-1" value="通过对象接口增加了对CSS的支持" style="rounded=0;whiteSpace=wrap;html=1;" vertex="1" parent="1">
          <mxGeometry x="70" y="304" width="120" height="38.5" as="geometry" />
        </mxCell>
        <mxCell id="62U2gSdleWHu8dKYwmUc-14" style="edgeStyle=none;rounded=0;orthogonalLoop=1;jettySize=auto;html=1;exitX=1;exitY=0.5;exitDx=0;exitDy=0;entryX=0;entryY=0.5;entryDx=0;entryDy=0;" edge="1" parent="1" source="62U2gSdleWHu8dKYwmUc-4" target="62U2gSdleWHu8dKYwmUc-13">
          <mxGeometry relative="1" as="geometry" />
        </mxCell>
        <mxCell id="62U2gSdleWHu8dKYwmUc-4" value="DOM视图&lt;br&gt;（DOM Views）" style="rounded=0;whiteSpace=wrap;html=1;" vertex="1" parent="1">
          <mxGeometry x="480" y="203.75" width="100" height="40" as="geometry" />
        </mxCell>
        <mxCell id="62U2gSdleWHu8dKYwmUc-16" style="edgeStyle=none;rounded=0;orthogonalLoop=1;jettySize=auto;html=1;exitX=1;exitY=0.5;exitDx=0;exitDy=0;entryX=0;entryY=0.5;entryDx=0;entryDy=0;" edge="1" parent="1" source="62U2gSdleWHu8dKYwmUc-6" target="62U2gSdleWHu8dKYwmUc-15">
          <mxGeometry relative="1" as="geometry" />
        </mxCell>
        <mxCell id="62U2gSdleWHu8dKYwmUc-6" value="DOM事件&lt;br&gt;（DOM Events）" style="rounded=0;whiteSpace=wrap;html=1;" vertex="1" parent="1">
          <mxGeometry x="480" y="252.75" width="100" height="40" as="geometry" />
        </mxCell>
        <mxCell id="62U2gSdleWHu8dKYwmUc-18" style="edgeStyle=none;rounded=0;orthogonalLoop=1;jettySize=auto;html=1;exitX=1;exitY=0.5;exitDx=0;exitDy=0;entryX=0;entryY=0.5;entryDx=0;entryDy=0;" edge="1" parent="1" source="62U2gSdleWHu8dKYwmUc-7" target="62U2gSdleWHu8dKYwmUc-17">
          <mxGeometry relative="1" as="geometry" />
        </mxCell>
        <mxCell id="62U2gSdleWHu8dKYwmUc-7" value="DOM样式&lt;br&gt;（DOM Style）" style="rounded=0;whiteSpace=wrap;html=1;" vertex="1" parent="1">
          <mxGeometry x="480" y="302" width="100" height="40" as="geometry" />
        </mxCell>
        <mxCell id="62U2gSdleWHu8dKYwmUc-20" style="edgeStyle=none;rounded=0;orthogonalLoop=1;jettySize=auto;html=1;exitX=1;exitY=0.5;exitDx=0;exitDy=0;entryX=0;entryY=0.5;entryDx=0;entryDy=0;" edge="1" parent="1" source="62U2gSdleWHu8dKYwmUc-8" target="62U2gSdleWHu8dKYwmUc-19">
          <mxGeometry relative="1" as="geometry" />
        </mxCell>
        <mxCell id="62U2gSdleWHu8dKYwmUc-8" value="DOM遍历和范围" style="rounded=0;whiteSpace=wrap;html=1;" vertex="1" parent="1">
          <mxGeometry x="480" y="352" width="100" height="40" as="geometry" />
        </mxCell>
        <mxCell id="62U2gSdleWHu8dKYwmUc-13" value="定义了跟踪不同文档视图的接口" style="rounded=0;whiteSpace=wrap;html=1;" vertex="1" parent="1">
          <mxGeometry x="620" y="203.75" width="100" height="40" as="geometry" />
        </mxCell>
        <mxCell id="62U2gSdleWHu8dKYwmUc-15" value="定义了事件和事件处理的接口" style="rounded=0;whiteSpace=wrap;html=1;" vertex="1" parent="1">
          <mxGeometry x="620" y="252.75" width="100" height="40" as="geometry" />
        </mxCell>
        <mxCell id="62U2gSdleWHu8dKYwmUc-17" value="定义了基于CSS为元素应用样式的接口" style="rounded=0;whiteSpace=wrap;html=1;" vertex="1" parent="1">
          <mxGeometry x="620" y="302" width="120" height="40" as="geometry" />
        </mxCell>
        <mxCell id="62U2gSdleWHu8dKYwmUc-19" value="定义了遍历和操作文档树的接口" style="rounded=0;whiteSpace=wrap;html=1;" vertex="1" parent="1">
          <mxGeometry x="620" y="352" width="100" height="40" as="geometry" />
        </mxCell>
        <mxCell id="62U2gSdleWHu8dKYwmUc-30" style="edgeStyle=none;rounded=0;orthogonalLoop=1;jettySize=auto;html=1;exitX=1;exitY=0.5;exitDx=0;exitDy=0;entryX=0;entryY=0.5;entryDx=0;entryDy=0;" edge="1" parent="1" source="62U2gSdleWHu8dKYwmUc-22" target="62U2gSdleWHu8dKYwmUc-4">
          <mxGeometry relative="1" as="geometry" />
        </mxCell>
        <mxCell id="62U2gSdleWHu8dKYwmUc-22" value="文档历史记录" style="rounded=0;whiteSpace=wrap;html=1;" vertex="1" parent="1">
          <mxGeometry x="360" y="208.75" width="80" height="30" as="geometry" />
        </mxCell>
        <mxCell id="62U2gSdleWHu8dKYwmUc-31" style="edgeStyle=none;rounded=0;orthogonalLoop=1;jettySize=auto;html=1;exitX=1;exitY=0.5;exitDx=0;exitDy=0;" edge="1" parent="1" source="62U2gSdleWHu8dKYwmUc-23">
          <mxGeometry relative="1" as="geometry">
            <mxPoint x="510" y="273" as="targetPoint" />
          </mxGeometry>
        </mxCell>
        <mxCell id="62U2gSdleWHu8dKYwmUc-23" value="JS相关" style="rounded=0;whiteSpace=wrap;html=1;" vertex="1" parent="1">
          <mxGeometry x="360" y="257.75" width="80" height="30" as="geometry" />
        </mxCell>
        <mxCell id="62U2gSdleWHu8dKYwmUc-33" style="edgeStyle=none;rounded=0;orthogonalLoop=1;jettySize=auto;html=1;exitX=1;exitY=0.5;exitDx=0;exitDy=0;entryX=0;entryY=0.5;entryDx=0;entryDy=0;" edge="1" parent="1" source="62U2gSdleWHu8dKYwmUc-24" target="62U2gSdleWHu8dKYwmUc-7">
          <mxGeometry relative="1" as="geometry" />
        </mxCell>
        <mxCell id="62U2gSdleWHu8dKYwmUc-24" value="CSS相关" style="rounded=0;whiteSpace=wrap;html=1;" vertex="1" parent="1">
          <mxGeometry x="360" y="307" width="80" height="30" as="geometry" />
        </mxCell>
        <mxCell id="62U2gSdleWHu8dKYwmUc-34" style="edgeStyle=none;rounded=0;orthogonalLoop=1;jettySize=auto;html=1;exitX=1;exitY=0.5;exitDx=0;exitDy=0;entryX=0;entryY=0.5;entryDx=0;entryDy=0;" edge="1" parent="1" source="62U2gSdleWHu8dKYwmUc-25" target="62U2gSdleWHu8dKYwmUc-8">
          <mxGeometry relative="1" as="geometry" />
        </mxCell>
        <mxCell id="62U2gSdleWHu8dKYwmUc-25" value="HTML相关" style="rounded=0;whiteSpace=wrap;html=1;" vertex="1" parent="1">
          <mxGeometry x="360" y="357" width="80" height="30" as="geometry" />
        </mxCell>
      </root>
    </mxGraphModel>
  </diagram>
</mxfile>
